<?xml version="1.0" encoding="UTF-8"?><svg xmlns="http://www.w3.org/2000/svg" xmlns:xlink="http://www.w3.org/1999/xlink" version="1.1" viewBox="0 0 1121 217.5"><defs><style>.cls-1 {
        fill: url(#linear-gradient);
      }</style><linearGradient id="linear-gradient" x1="267.2" y1="357.9" x2="869.9" y2="-244.8" gradientUnits="userSpaceOnUse"><stop offset="0" stop-color="#081636"/><stop offset=".2" stop-color="#0d4465"/><stop offset=".5" stop-color="#1483a6"/><stop offset=".7" stop-color="#1ab1d5"/><stop offset=".9" stop-color="#1dcef3"/><stop offset="1" stop-color="#1fd9fe"/></linearGradient></defs><!--Generator: Adobe Illustrator 28.7.1, SVG Export Plug-In . SVG Version: 1.2.0 Build 142)--><g><g id="Layer_1"><path class="cls-1" d="M433.8,27c-4.9,0-8.8,3.7-8.8,8.3,0,7.6,8.3,9.8,10,10.3l28.9,7.8c9.5,2.5,26.3,9.6,26.3,32.8s-16.9,34.5-30.2,34.5h-54.7c-5.1,0-8.9-4.4-8.9-10v-7.3c0-4.7,3.9-8.4,8.9-8.4h53.2c4.1,0,7.1-3.2,7.1-7.4s-4.4-8.3-10-9.8l-26.2-7.4c-11-3-30-12.9-30-36.1S413.8,1.2,432.2,1.2h55.6c4.6,0,8.1,4.4,8.1,10v7.3c0,4.9-3.6,8.6-8.1,8.6h-54.1c0,0,0,0,0,0ZM1058.8,26.9h54.1c4.5,0,8.1-3.7,8.1-8.6v-7.3c0-5.5-3.6-10-8.1-10h-55.6c-18.4,0-32.9,14.5-32.9,32.9s19.1,33.1,30,36.1l26.2,7.4c5.5,1.5,10,4.9,10,9.8s-3,7.4-7.1,7.4h-53.2c-5.1,0-8.9,3.7-8.9,8.4v7.3c0,5.5,3.9,10,8.9,10h54.7c13.3,0,30.2-11.3,30.2-34.5s-16.9-30.2-26.3-32.8l-28.9-7.8c-1.7-.5-10-2.7-10-10.3s3.9-8.3,8.8-8.3h0c0,0,0,0,0,0ZM944.1,60.2c0,35.2-26.2,62.6-62.8,62.6s-62.8-27.7-62.8-62.6h0c0-35.2,26.2-61.4,62.8-61.4s62.8,26.2,62.8,61.4ZM916.4,60.2c0-22.1-14.5-38.1-35.1-38.1s-36.6,16.1-36.6,38.1,16.4,37.8,36.6,37.8,35.1-16.1,35.1-37.8ZM315.2,60.2c0,35.2-26.2,62.6-62.8,62.6s-62.8-27.7-62.8-62.6h0c0-35.2,26.2-61.4,62.8-61.4s62.8,26.2,62.8,61.4h0ZM287.5,60.2c0-22.1-14.5-38.1-35.1-38.1s-36.6,16.1-36.6,38.1,16.4,37.8,36.6,37.8,35.1-16.1,35.1-37.8ZM725.7,1h-13.4c-2.4,0-4.8,1.2-6.2,3.3l-41.9,62.4-41.9-62.4c-1.4-2-3.8-3.3-6.2-3.3h-13.4c-4.9,0-8.7,3.8-8.7,8.7v102.1c0,4.9,3.8,8.7,8.7,8.7h8.5c4.9,0,8.7-3.8,8.7-8.7v-55.6c0-4.9.4-8.7.7-8.7h.7l36.8,63.7c1.4,2,3.6,3.3,6.2,3.3s4.8-1.2,6.2-3.3l36.5-63.7h.7c.4,0,.7,3.8.7,8.7v55.6c0,4.9,3.8,8.7,8.7,8.7h8.5c4.9,0,8.7-3.8,8.7-8.7V9.7c0-4.9-3.8-8.7-8.7-8.7h.1ZM53.4,27.2h43.7s12.6,2,12.6-8.2V6.4s0-5.8-12.6-5.8h-43.2c-12.3,0-53.9,7.7-53.9,64.4s53.6,56.1,53.6,56.1h43.5s12.6,1.1,12.6-8.8v-11.7s.9-7-13.2-7h-43c-24.9,0-23.8-33.8-23.8-33.8,0,0,1.1-32.5,23.6-32.5h0ZM400.9,194.7v6.5h11.7v5.4h-11.7v10.5h-6.2v-28.1h19.8v5.7h-13.6ZM449.4,217.1l-5.3-10.5h-4.1v10.5h-6v-28.1h11.8c5.7,0,9.2,3.5,9.2,8.4s-1.9,6.6-5.1,7.9l6,11.7h-6.5,0ZM440.1,201.4h5c2.3,0,3.7-1.6,3.7-3.6s-1.4-3.6-3.7-3.6h-5v7.2ZM474.1,203.1c0-8.2,6.2-14.4,14.6-14.4s14.5,6.2,14.5,14.4-6,14.4-14.6,14.4-14.6-6.2-14.6-14.4h0ZM496.9,203.1c0-5-3.5-8.7-8.2-8.7s-8.3,3.7-8.3,8.7,3.5,8.7,8.3,8.7,8.2-3.7,8.2-8.7ZM554.9,217.1h-6v-17h-.4l-6.3,13.8h-6.2l-6.3-13.8h-.4v17h-6v-28.1h7.5l8.1,18.2h.4l8-18.2h7.5v28.1h0ZM617.7,190l-1.7-.8c-1-.5-2.2,0-2.6.9h0l-.5.9-7.5,16-7.5-16-.5-.9c-.5-1-1.6-1.4-2.6-1h0l-1.7.8c-1,.5-1.5,1.7-1,2.7l.4.8,10.2,21.8c.5,1.1,1.5,1.7,2.7,1.7h.1c1.2,0,2.2-.7,2.7-1.7l10.2-21.8.4-.8c.5-1,0-2.3-1-2.7h-.1ZM633.8,216.1l1.7.8c1,.5,2.2,0,2.6-.9h0l.5-.9,7.5-16,7.5,16,.5.9c.5,1,1.6,1.4,2.6,1h0l1.7-.8c1-.5,1.5-1.7,1-2.7l-.4-.8-10.2-21.8c-.5-1.1-1.5-1.7-2.7-1.7h-.1c-1.2,0-2.2.7-2.7,1.7l-10.2,21.8-.4.8c-.5,1,0,2.3,1,2.7h.1ZM694.4,195c1.1,0,2-.8,2.1-1.9h0v-1.9c0-1.1-.8-2.1-1.9-2.2h-13c-3.1.2-7.7,2.4-7.7,7.7s4.6,7.8,7,8.3l6.1,1.5h.3c.3,0,1.9.4,1.9,2.2s-.6,1.7-1.6,1.9h-12.3c-1.1,0-2,.8-2.1,1.9h0v1.9c0,1.1.8,2.1,1.9,2.2h13c2.8-.3,7.2-2.6,7.2-7.9s-4.4-7.7-6.9-8.1l-6-1.4h-.1c-.1,0-2.3-.5-2.3-2.5s1.3-1.7,2-1.7h12.5ZM734.9,191c0-1.1-.9-2-2-2h-20.7c-1.1,0-2,.9-2,1.9h0v1.9c0,1.1.9,2.1,2,2.1h7.4v18.8h0v1c0,1.1.9,2,1.9,2h1.9c1.1,0,2.1-.9,2.1-2v-1h0v-18.7h7.4c1.1,0,2-1,2-2.1v-1.9h0Z"/></g></g></svg>